<svg width="143" height="77" viewBox="0 0 143 77" fill="none" xmlns="http://www.w3.org/2000/svg">
<path d="M82.8733 33.7549V14.395H87.7259V21.9634L94.4134 14.395H99.9483L93.0334 22.2964L100.373 33.7549H95.2019L90.0157 25.3994L87.7259 27.8364V33.7095L82.8733 33.7549Z" fill="white"/>
<path d="M103.284 33.7549V14.395H108.137V22.0542H115.719V14.395H120.526V33.7549H115.689V26.0806H108.107V33.7549H103.284Z" fill="white"/>
<path d="M122.938 33.77L130.338 14.4102H135.585L143 33.77H137.935L136.191 29.3804H129.716L127.987 33.77H122.938ZM130.368 25.7929H135.524L132.931 19.0571L130.368 25.7929Z" fill="white"/>
<path d="M81.2961 57.0351C80.6163 57.0375 79.9373 56.992 79.264 56.8989C78.647 56.8175 78.0414 56.6651 77.4595 56.4448V52.9482C77.9093 53.1281 78.3769 53.26 78.8546 53.3418C79.3539 53.4414 79.8618 53.4921 80.371 53.4931C81.144 53.566 81.9166 53.3503 82.5395 52.8877C82.7769 52.6067 82.9555 52.2811 83.0649 51.9302C83.1743 51.5793 83.2122 51.21 83.1764 50.8442V40.1123H87.3618V51.6313C87.4127 52.3695 87.3037 53.1098 87.042 53.8021C86.7803 54.4943 86.3721 55.122 85.8454 55.6426C84.5526 56.6503 82.9326 57.1462 81.2961 57.0351Z" fill="white"/>
<path d="M99.0384 56.5961C97.9188 56.6743 96.7947 56.5314 95.7305 56.1756C94.6662 55.8198 93.6827 55.258 92.8362 54.5224C92.0632 53.6471 91.4764 52.6242 91.1115 51.5158C90.7466 50.4073 90.611 49.2364 90.7132 48.0741C90.7132 45.0468 91.4107 42.7611 92.8362 41.414C94.6358 40.106 96.8047 39.4014 99.0309 39.4014C101.257 39.4014 103.426 40.106 105.225 41.414C106.651 42.7611 107.364 44.9862 107.364 48.0741C107.463 49.2374 107.325 50.4087 106.957 51.5171C106.59 52.6255 106 53.6479 105.225 54.5224C104.382 55.2582 103.401 55.8203 102.34 56.1762C101.278 56.5321 100.156 56.6748 99.0384 56.5961ZM99.0384 53.0389C99.602 53.0853 100.169 53.0015 100.695 52.7941C101.221 52.5868 101.692 52.2614 102.071 51.8432C102.809 50.731 103.151 49.4035 103.042 48.0741C103.173 46.6857 102.831 45.2936 102.071 44.1234C101.684 43.7179 101.21 43.4041 100.686 43.205C100.161 43.0059 99.5979 42.9267 99.0384 42.9731C98.467 42.9206 97.8912 42.9967 97.3531 43.1958C96.8151 43.3948 96.3287 43.7118 95.9297 44.1234C95.1697 45.2936 94.8277 46.6857 94.9592 48.0741C94.8503 49.4035 95.192 50.731 95.9297 51.8432C96.3268 52.2566 96.8134 52.5738 97.3522 52.7705C97.891 52.9673 98.4678 53.0384 99.0384 52.9784V53.0389Z" fill="white"/>
<path d="M110.215 56.9139V40.2636H118.57C119.362 40.1879 120.161 40.284 120.912 40.5453C121.663 40.8066 122.349 41.2268 122.922 41.7772C123.907 42.9343 124.412 44.4235 124.333 45.9398C124.354 46.9888 124.052 48.0189 123.468 48.8915C122.9 49.7437 122.085 50.4035 121.133 50.7836C121.361 50.9646 121.56 51.1789 121.724 51.4193C121.91 51.7295 122.073 52.0533 122.21 52.3881L124.181 56.9291H119.814L117.948 52.6757C117.833 52.3611 117.627 52.0874 117.357 51.8885C117.04 51.7054 116.676 51.6211 116.311 51.6464H114.461V56.9291L110.215 56.9139ZM114.461 48.4223H117.493C118.186 48.4624 118.868 48.2408 119.404 47.8016C119.646 47.5621 119.832 47.2727 119.95 46.9537C120.068 46.6347 120.115 46.2938 120.087 45.955C120.087 44.2899 119.283 43.4423 117.675 43.4423H114.461V48.4223Z" fill="white"/>
<path d="M128.108 56.914V40.2637H131.687L138.799 50.2388V40.2637H143V56.914H139.391L132.279 46.9692V56.914H128.108Z" fill="white"/>
<path d="M37.1224 0C29.7803 0 22.603 2.17322 16.4983 6.24484C10.3935 10.3165 5.63547 16.1036 2.82577 22.8744C0.0160657 29.6453 -0.719056 37.0958 0.713319 44.2837C2.14569 51.4715 5.68125 58.0741 10.8729 63.2562C16.0646 68.4384 22.6791 71.9675 29.8801 73.3973C37.0812 74.8271 44.5453 74.0933 51.3285 71.2887C58.1117 68.4841 63.9094 63.7347 67.9885 57.6411C72.0675 51.5475 74.2448 44.3834 74.2448 37.0546C74.2448 32.1886 73.2846 27.3701 71.419 22.8744C69.5534 18.3788 66.819 14.2939 63.3718 10.8531C59.9247 7.41222 55.8324 4.68279 51.3285 2.82062C46.8246 0.958454 41.9974 0 37.1224 0ZM37.1224 67.1918C31.1569 67.1918 25.3254 65.4261 20.3653 62.1179C15.4052 58.8097 11.5393 54.1076 9.25637 48.6063C6.97349 43.105 6.37621 37.0515 7.54001 31.2114C8.70382 25.3712 11.5764 20.0066 15.7947 15.7961C20.0129 11.5856 25.3872 8.71821 31.2381 7.55653C37.0889 6.39484 43.1535 6.99106 48.6648 9.26978C54.1762 11.5485 58.8869 15.4074 62.2011 20.3584C65.5153 25.3095 67.2843 31.1303 67.2843 37.0849C67.2843 45.0698 64.1065 52.7276 58.4501 58.3737C52.7936 64.0198 45.1218 67.1918 37.1224 67.1918Z" fill="#F9F9FF"/>
<path d="M22.3675 17.9975L16.878 25.2177C16.776 25.3642 16.723 25.539 16.7263 25.7173V31.7719C16.7263 31.7719 16.4534 35.1171 20.4719 35.1171C20.9417 35.161 21.4155 35.1075 21.8636 34.9601C22.3117 34.8127 22.7245 34.5745 23.0761 34.2605C23.4277 33.9464 23.7106 33.5633 23.907 33.1351C24.1034 32.7069 24.2091 32.2428 24.2175 31.7719L24.1265 25.7173C24.1314 25.5749 24.1676 25.4353 24.2327 25.3086L27.7963 18.936C27.8651 18.8141 27.9007 18.6765 27.8997 18.5366C27.8987 18.3968 27.861 18.2596 27.7905 18.1388C27.72 18.0179 27.6191 17.9175 27.4977 17.8476C27.3764 17.7777 27.2389 17.7407 27.0988 17.7402H23.0044C22.8859 17.7345 22.7675 17.7545 22.6576 17.799C22.5476 17.8434 22.4486 17.9111 22.3675 17.9975Z" fill="#3C41FF"/>
<path d="M51.7864 17.9975L57.2759 25.2177C57.3823 25.3628 57.4406 25.5375 57.4427 25.7173V31.7719C57.4427 31.7719 57.7156 35.1171 53.6819 35.1171C53.2122 35.161 52.7384 35.1075 52.2903 34.9601C51.8421 34.8127 51.4293 34.5745 51.0777 34.2605C50.7261 33.9464 50.4432 33.5633 50.2468 33.1351C50.0504 32.7069 49.9447 32.2428 49.9363 31.7719L50.0273 25.7173C50.0225 25.5749 49.9862 25.4353 49.9211 25.3086L46.3575 18.936C46.2888 18.8141 46.2532 18.6765 46.2542 18.5366C46.2552 18.3968 46.2928 18.2596 46.3633 18.1388C46.4338 18.0179 46.5348 17.9175 46.6561 17.8476C46.7774 17.7777 46.915 17.7407 47.0551 17.7402H51.1495C51.268 17.7345 51.3863 17.7545 51.4963 17.799C51.6062 17.8434 51.7052 17.9111 51.7864 17.9975Z" fill="#3C41FF"/>
<path d="M30.8595 18.482L27.9632 25.5963C27.9475 25.6966 27.9475 25.7987 27.9632 25.899V32.0596C27.9632 32.0596 27.6902 35.42 31.7239 35.42C32.1945 35.4616 32.6686 35.4061 33.1168 35.2569C33.5649 35.1078 33.9775 34.8681 34.3288 34.5529C34.6802 34.2377 34.9628 33.8537 35.1591 33.4247C35.3553 32.9958 35.461 32.5311 35.4695 32.0596L35.3785 25.7325L35.4998 18.7848C35.5019 18.6781 35.4826 18.5722 35.4431 18.4731C35.4036 18.374 35.3447 18.2838 35.2699 18.2077C35.1951 18.1316 35.1058 18.0711 35.0073 18.0299C34.9087 17.9886 34.803 17.9673 34.6961 17.9674H31.6633C31.4913 17.9536 31.3197 17.9965 31.1745 18.0894C31.0294 18.1824 30.9187 18.3203 30.8595 18.482Z" fill="#3C41FF"/>
<path d="M43.4155 18.482L46.2967 25.5962C46.3195 25.6959 46.3195 25.7993 46.2967 25.8989V32.0596C46.2967 32.0596 46.5697 35.4199 42.5511 35.4199C42.0805 35.4615 41.6064 35.4061 41.1583 35.2569C40.7101 35.1077 40.2976 34.8681 39.9462 34.5528C39.5949 34.2376 39.3123 33.8536 39.116 33.4247C38.9198 32.9957 38.8141 32.531 38.8055 32.0596L38.8965 25.7324L38.76 18.7847C38.76 18.5679 38.8463 18.36 38.9999 18.2067C39.1534 18.0534 39.3617 17.9673 39.5789 17.9673H42.6118C42.7833 17.956 42.9539 18 43.0985 18.0926C43.2432 18.1852 43.3542 18.3217 43.4155 18.482Z" fill="#3C41FF"/>
<path d="M56.6389 55.2035H18.728C18.5149 55.2035 18.3105 55.119 18.1597 54.9686C18.009 54.8181 17.9243 54.614 17.9243 54.4013V40.4452C17.9252 40.3301 17.9508 40.2166 17.9995 40.1123C18.0482 40.008 18.1189 39.9153 18.2066 39.8407C18.2944 39.766 18.3972 39.711 18.5081 39.6796C18.619 39.6481 18.7354 39.6407 18.8494 39.6581C31.2978 41.6864 43.9934 41.6864 56.4418 39.6581C56.5565 39.6409 56.6736 39.6483 56.7853 39.6796C56.897 39.711 57.0007 39.7657 57.0896 39.8402C57.1785 39.9146 57.2505 40.007 57.3009 40.1113C57.3514 40.2156 57.379 40.3295 57.382 40.4452V54.4013C57.3826 54.604 57.3063 54.7993 57.1685 54.9482C57.0306 55.097 56.8414 55.1882 56.6389 55.2035Z" fill="#3C41FF"/>
<path d="M62.9073 60.0993C61.0125 58.543 58.2146 58.8119 56.658 60.7001C55.1015 62.5882 55.3757 65.3806 57.2705 66.937L66.041 74.1408C67.9359 75.6971 70.7338 75.4282 72.2903 73.54C73.8469 71.6518 73.5726 68.8595 71.6778 67.3031L62.9073 60.0993Z" fill="#F9F9FF"/>
<path d="M54.3034 51.9189H16.4683C16.2537 51.9189 16.0477 51.8349 15.8945 51.6848C15.7414 51.5348 15.6534 51.3308 15.6494 51.1166V37.1606C15.6499 37.044 15.6759 36.9289 15.7255 36.8233C15.7751 36.7178 15.8472 36.6243 15.9367 36.5494C16.0262 36.4745 16.1309 36.4199 16.2437 36.3895C16.3564 36.3592 16.4745 36.3537 16.5896 36.3735C29.038 38.4017 41.7336 38.4017 54.1821 36.3735C54.2964 36.3534 54.4138 36.3588 54.5259 36.3892C54.6379 36.4197 54.7418 36.4745 54.8302 36.5497C54.9186 36.6249 54.9892 36.7186 55.0371 36.8242C55.0849 36.9298 55.1088 37.0447 55.1071 37.1606V51.1166C55.1071 51.3294 55.0224 51.5334 54.8717 51.6839C54.721 51.8343 54.5165 51.9189 54.3034 51.9189Z" fill="#FACF43"/>
<path d="M20.6995 17.3617L15.2251 24.5971C15.117 24.7354 15.0583 24.9059 15.0583 25.0814V31.1361C15.0583 31.1361 14.7854 34.4813 18.8039 34.4813C19.2737 34.5252 19.7475 34.4717 20.1956 34.3243C20.6437 34.1769 21.0565 33.9387 21.4081 33.6247C21.7597 33.3106 22.0426 32.9275 22.239 32.4993C22.4354 32.0711 22.5412 31.607 22.5495 31.1361L22.4737 25.0814C22.4662 24.9443 22.4977 24.8078 22.5647 24.6879L26.1283 18.3002C26.197 18.1783 26.2327 18.0406 26.2317 17.9008C26.2306 17.761 26.193 17.6238 26.1225 17.503C26.052 17.3821 25.9511 17.2817 25.8297 17.2118C25.7084 17.1419 25.5709 17.1049 25.4308 17.1044H21.3516C21.2307 17.0975 21.1097 17.1169 20.9971 17.1613C20.8845 17.2058 20.783 17.2741 20.6995 17.3617Z" fill="#FACF43"/>
<path d="M49.4661 17.3617L54.9404 24.5971C55.0485 24.7354 55.1072 24.9059 55.1072 25.0814V31.1361C55.1072 31.1361 55.3802 34.4813 51.3616 34.4813C50.8911 34.5251 50.4166 34.4717 49.9676 34.3244C49.5187 34.1771 49.1049 33.9392 48.7521 33.6254C48.3993 33.3116 48.115 32.9286 47.917 32.5003C47.7189 32.0721 47.6113 31.6077 47.6008 31.1361L47.6918 25.0814C47.6925 24.945 47.6614 24.8102 47.6008 24.6879L44.0372 18.3002C43.9685 18.1783 43.9328 18.0406 43.9339 17.9008C43.9349 17.761 43.9725 17.6238 44.043 17.503C44.1135 17.3821 44.2144 17.2817 44.3358 17.2118C44.4571 17.1419 44.5946 17.1049 44.7347 17.1044H48.814C48.9349 17.0975 49.0558 17.1169 49.1684 17.1613C49.281 17.2058 49.3826 17.2741 49.4661 17.3617Z" fill="#FACF43"/>
<path d="M29.1912 17.5435L26.2948 24.6578C26.2819 24.7583 26.2819 24.86 26.2948 24.9605V31.1363C26.2948 31.1363 26.0219 34.4815 30.0556 34.4815C30.5253 34.5253 30.9991 34.4719 31.4472 34.3244C31.8954 34.177 32.3082 33.9389 32.6598 33.6248C33.0114 33.3108 33.2943 32.9277 33.4907 32.4995C33.6871 32.0712 33.7928 31.6071 33.8012 31.1363L33.7102 24.8091L33.8315 17.8614C33.8335 17.7548 33.8142 17.6488 33.7747 17.5497C33.7353 17.4506 33.6764 17.3604 33.6015 17.2843C33.5267 17.2082 33.4374 17.1478 33.3389 17.1065C33.2404 17.0652 33.1346 17.044 33.0278 17.044H29.9949C29.8248 17.0292 29.6545 17.0699 29.5096 17.16C29.3647 17.25 29.2529 17.3846 29.1912 17.5435Z" fill="#FACF43"/>
<path d="M41.6716 17.5435L44.5528 24.6577C44.5728 24.7576 44.5728 24.8606 44.5528 24.9605V31.1362C44.5528 31.1362 44.8258 34.4815 40.8072 34.4815C40.3367 34.5252 39.8622 34.4718 39.4133 34.3245C38.9643 34.1773 38.5506 33.9393 38.1978 33.6255C37.845 33.3117 37.5607 32.9287 37.3626 32.5005C37.1645 32.0722 37.0569 31.6078 37.0465 31.1362L37.1375 24.8091L37.0161 17.8614C37.0161 17.6472 37.1003 17.4415 37.2506 17.2887C37.4009 17.1358 37.6053 17.0479 37.8198 17.044H40.8527C41.0241 17.0329 41.1948 17.075 41.3413 17.1644C41.4879 17.2538 41.6032 17.3862 41.6716 17.5435Z" fill="#FACF43"/>
</svg>
