<?xml version="1.0" standalone="no"?>
<!DOCTYPE svg PUBLIC "-//W3C//DTD SVG 20010904//EN"
 "http://www.w3.org/TR/2001/REC-SVG-20010904/DTD/svg10.dtd">
<svg version="1.0" xmlns="http://www.w3.org/2000/svg"
 width="1280.000000pt" height="1280.000000pt" viewBox="0 0 1280.000000 1280.000000"
 preserveAspectRatio="xMidYMid meet">
<metadata>
Created by potrace 1.14, written by Peter Selinger 2001-2017
</metadata>
<g transform="translate(0.000000,1280.000000) scale(0.100000,-0.100000)"
fill="#000000" stroke="none">
<path d="M3047 9924 c-3 -3 -25 -8 -49 -10 -23 -2 -59 -7 -78 -10 -19 -3 -53
-7 -75 -9 -22 -3 -51 -7 -65 -10 -23 -4 -70 -13 -111 -20 -8 -2 -46 -11 -83
-20 -37 -9 -75 -18 -84 -20 -9 -2 -17 -4 -17 -5 0 -1 -9 -4 -50 -14 -11 -2
-65 -19 -120 -37 -55 -18 -102 -33 -105 -34 -3 -1 -14 -5 -25 -10 -11 -4 -47
-19 -80 -32 -33 -13 -89 -38 -125 -55 -36 -16 -66 -29 -68 -29 -4 2 -192 -99
-234 -126 -21 -12 -42 -23 -48 -23 -5 0 -10 -3 -10 -7 0 -5 -25 -21 -55 -38
-30 -16 -55 -32 -55 -35 0 -3 -15 -14 -32 -25 -31 -17 -227 -162 -238 -174 -3
-4 -34 -31 -69 -61 -102 -87 -246 -233 -366 -371 -26 -30 -155 -200 -210 -276
-49 -68 -127 -198 -187 -313 -22 -41 -45 -81 -50 -87 -6 -7 -8 -13 -4 -13 3 0
-6 -19 -21 -42 -14 -24 -25 -44 -24 -46 1 -1 -17 -51 -42 -110 -57 -137 -59
-143 -64 -165 -1 -10 -10 -31 -18 -47 -9 -17 -15 -32 -15 -35 0 -3 0 -6 -1 -7
0 -2 -2 -14 -5 -27 -2 -14 -9 -30 -15 -38 -6 -7 -9 -13 -5 -13 3 0 1 -11 -4
-25 -5 -14 -12 -36 -14 -48 -3 -12 -15 -60 -27 -107 -24 -98 -27 -112 -35
-160 -3 -19 -7 -43 -10 -52 -8 -28 -14 -64 -29 -193 -16 -130 -19 -210 -19
-415 0 -216 6 -356 19 -420 3 -14 7 -44 10 -68 3 -24 7 -53 10 -65 2 -12 7
-38 10 -57 5 -36 11 -66 20 -110 4 -14 8 -36 11 -50 23 -109 135 -471 153
-495 5 -5 12 -21 16 -35 15 -51 166 -364 206 -425 10 -16 22 -37 26 -45 14
-30 77 -125 85 -128 4 -2 8 -8 8 -13 0 -13 178 -258 210 -289 3 -3 32 -36 65
-75 74 -86 188 -200 285 -285 40 -36 81 -72 89 -80 26 -24 215 -165 250 -186
17 -10 31 -22 31 -26 0 -4 4 -8 10 -8 5 0 40 -19 77 -43 38 -23 77 -48 88 -54
26 -16 198 -108 205 -109 3 0 37 -16 75 -34 39 -19 72 -34 75 -35 9 -3 65 -25
85 -35 11 -5 49 -19 85 -31 36 -12 71 -27 78 -32 6 -5 12 -7 12 -3 0 3 17 0
38 -8 68 -25 278 -81 347 -92 11 -2 49 -8 85 -14 36 -6 79 -13 95 -16 17 -2
41 -6 55 -9 108 -19 523 -26 680 -11 47 4 103 9 125 11 36 4 70 9 185 30 19 3
76 15 125 26 50 11 98 22 108 24 19 4 22 5 177 55 52 17 100 32 105 34 6 2 19
7 30 11 11 5 43 17 70 27 93 34 388 177 393 190 2 4 8 8 13 8 6 0 35 16 65 35
30 19 57 35 60 35 4 0 35 20 70 45 69 50 82 53 105 27 9 -9 35 -33 59 -52 48
-39 109 -89 126 -105 6 -5 31 -26 55 -47 24 -20 54 -44 66 -55 12 -10 32 -26
45 -37 12 -10 48 -40 78 -66 30 -25 66 -55 79 -66 13 -10 28 -24 35 -29 6 -6
38 -33 71 -60 33 -28 63 -54 66 -58 3 -5 19 -15 35 -24 74 -40 107 -54 134
-56 17 -1 30 -4 30 -7 0 -8 98 -4 140 5 37 8 117 43 138 60 84 69 132 138 155
225 9 30 16 63 16 73 1 9 2 23 2 30 1 13 -7 74 -16 122 -16 76 -82 163 -200
262 -28 22 -142 119 -255 213 -316 266 -289 239 -267 262 23 24 146 179 181
230 38 53 148 226 178 276 86 151 258 520 258 555 0 3 5 18 12 34 6 15 13 35
14 43 2 8 12 42 24 75 11 32 22 68 25 80 2 11 13 54 24 95 12 41 27 109 36
150 8 41 16 84 19 95 2 11 7 45 10 76 4 31 9 67 11 80 40 196 37 672 -5 944
-6 39 -13 84 -15 100 -7 42 -17 93 -31 155 -3 14 -7 34 -9 45 -2 11 -4 21 -5
23 -3 2 -4 5 -14 47 -5 17 -17 62 -28 100 -11 39 -21 75 -22 80 -1 6 -4 15 -7
20 -4 6 -9 22 -13 37 -3 15 -11 40 -18 55 -6 15 -12 30 -12 33 -6 31 -96 236
-153 350 -83 166 -117 226 -173 311 -22 33 -40 64 -40 69 0 5 -3 10 -7 12 -5
2 -24 26 -43 53 -19 28 -38 55 -42 60 -4 6 -23 29 -40 52 -18 23 -40 50 -48
61 -60 79 -104 127 -250 272 -91 91 -181 178 -200 192 -19 15 -46 37 -60 48
-129 106 -370 269 -422 287 -10 3 -18 9 -18 14 0 5 -5 9 -10 9 -6 0 -22 8 -37
17 -14 10 -32 18 -40 19 -8 2 -23 10 -32 18 -10 9 -20 16 -23 16 -3 0 -44 18
-90 39 -200 95 -463 186 -648 226 -8 2 -37 9 -65 15 -27 6 -61 13 -75 15 -14
2 -41 6 -60 10 -65 12 -108 18 -235 31 -93 10 -525 13 -530 3 -4 -5 -13 -5
-24 1 -10 5 -21 7 -24 4z m543 -647 c25 -3 63 -8 85 -12 22 -3 62 -8 89 -11
28 -3 54 -8 59 -11 4 -3 23 -7 40 -10 18 -2 66 -14 107 -25 41 -11 82 -21 90
-23 49 -11 182 -59 300 -108 152 -63 395 -200 515 -290 24 -17 55 -41 70 -51
14 -11 35 -27 45 -35 10 -9 42 -36 71 -61 87 -73 329 -321 329 -336 0 -3 9
-15 21 -27 80 -85 248 -352 328 -522 70 -147 67 -140 97 -220 69 -183 128
-397 140 -505 1 -14 3 -25 4 -25 2 0 5 -20 15 -90 4 -27 9 -61 11 -75 4 -34
17 -285 17 -335 -1 -50 -13 -250 -18 -290 -2 -16 -7 -55 -11 -85 -4 -30 -8
-63 -8 -72 0 -10 -3 -18 -7 -18 -4 0 -6 -7 -5 -17 2 -9 -4 -41 -11 -72 -8 -31
-15 -67 -18 -81 -2 -14 -4 -26 -4 -27 -1 -2 -1 -5 -1 -8 -1 -3 -7 -23 -15 -45
-8 -22 -12 -40 -8 -40 3 0 1 -6 -4 -12 -6 -7 -13 -26 -17 -43 -9 -38 -82 -234
-113 -302 -12 -28 -23 -57 -23 -62 0 -6 -4 -11 -10 -11 -5 0 -10 -8 -10 -18 0
-10 -4 -22 -9 -27 -5 -6 -30 -50 -56 -100 -45 -84 -161 -266 -209 -327 -12
-14 -28 -35 -36 -46 -56 -74 -111 -134 -234 -257 -78 -77 -156 -151 -175 -165
-18 -14 -43 -33 -55 -42 -35 -29 -40 -33 -76 -58 -19 -13 -37 -27 -40 -30 -3
-3 -30 -21 -60 -40 -30 -19 -57 -38 -60 -42 -3 -4 -17 -12 -30 -17 -14 -6 -43
-22 -65 -36 -42 -26 -240 -125 -249 -125 -3 0 -29 -11 -58 -24 -204 -92 -522
-169 -800 -192 -177 -14 -448 -4 -598 22 -14 2 -43 7 -65 10 -79 11 -314 71
-370 94 -11 5 -47 18 -80 28 -110 37 -311 131 -435 205 -106 63 -289 189 -336
232 -6 5 -38 33 -69 60 -83 71 -200 189 -270 270 -33 39 -63 72 -67 73 -5 2
-8 10 -8 17 0 7 -3 15 -8 17 -9 4 -56 65 -114 148 -40 59 -161 258 -164 270 0
3 -26 58 -57 123 -32 65 -57 124 -57 131 0 7 -3 16 -7 19 -21 22 -116 332
-137 447 -2 14 -7 32 -10 40 -6 19 -18 96 -20 133 0 15 -3 27 -6 27 -3 0 -6
15 -6 33 -1 17 -6 73 -10 122 -14 155 -10 396 10 575 8 69 18 135 22 142 3 4
7 24 9 45 2 21 9 58 15 83 6 25 13 54 15 66 10 45 66 226 87 281 12 32 22 60
23 63 1 11 71 168 92 207 13 23 23 49 23 57 0 9 4 16 8 16 4 0 18 21 31 46 19
41 141 242 163 269 4 6 45 57 90 115 130 166 352 382 529 513 52 39 79 57 88
57 5 0 11 4 13 9 11 31 369 217 528 276 41 15 91 33 110 40 45 17 179 54 216
61 16 3 38 8 49 11 11 4 27 7 35 8 8 1 24 4 35 7 11 4 40 9 65 13 25 3 72 9
105 14 33 5 63 7 68 4 4 -2 7 0 7 4 0 9 443 9 520 0z"/>
<path d="M1954 8359 c-2 -4 -13 -5 -24 -2 -48 13 -67 -5 -206 -194 -76 -104
-147 -200 -158 -214 -12 -14 -28 -36 -36 -49 -8 -12 -22 -30 -30 -40 -8 -10
-22 -28 -30 -40 -8 -12 -39 -54 -67 -93 -47 -62 -53 -76 -54 -121 -5 -299 1
-600 11 -633 32 -99 96 -159 200 -190 30 -9 65 -22 76 -30 20 -13 65 -29 109
-38 11 -3 54 -5 95 -6 120 -1 208 42 270 132 54 79 57 107 53 399 -2 146 -4
274 -5 285 -2 53 48 171 114 268 11 15 16 27 12 27 -3 0 -1 6 5 14 11 13 32
50 82 146 13 25 26 47 29 50 20 20 99 190 96 207 -9 44 -29 63 -71 64 -22 1
-46 1 -53 0 -7 -1 -26 12 -41 28 -16 17 -40 31 -53 32 -20 1 -84 -1 -113 -3
-5 0 -22 2 -37 5 -16 3 -28 2 -28 -3 0 -5 -6 -7 -12 -5 -21 8 -129 11 -134 4z"/>
<path d="M2629 8339 c-15 -15 -30 -43 -34 -61 -4 -18 -12 -39 -17 -48 -5 -8
-56 -134 -115 -280 l-106 -265 -2 -334 c-2 -326 0 -353 31 -426 25 -58 115
-135 159 -135 8 0 30 -13 48 -30 66 -57 119 -73 247 -74 103 0 120 3 160 24
128 70 179 174 174 360 -4 133 -4 793 0 985 2 88 0 170 -5 182 -11 30 -45 46
-95 45 -37 0 -42 3 -53 33 -6 18 -19 37 -29 41 -9 4 -89 8 -176 9 l-159 2 -28
-28z"/>
<path d="M3359 8363 c-8 -2 -22 -16 -31 -31 -13 -23 -15 -60 -11 -237 2 -115
3 -336 3 -490 0 -154 0 -286 0 -292 0 -27 0 -41 -3 -143 -5 -158 24 -251 100
-321 29 -28 100 -69 118 -69 5 0 32 -16 60 -35 69 -49 132 -66 235 -61 107 5
167 26 223 79 46 45 71 89 84 152 5 22 8 182 8 355 l-1 315 -28 70 c-16 39
-32 79 -37 90 -5 11 -18 45 -29 75 -11 30 -25 64 -29 75 -5 11 -35 85 -66 165
-90 229 -86 225 -167 222 -32 -2 -40 3 -52 26 -28 55 -37 57 -205 57 -86 1
-163 -1 -172 -2z"/>
<path d="M4034 8359 c-2 -4 -14 -4 -27 -2 -51 10 -92 -63 -63 -111 8 -12 31
-55 53 -96 22 -41 52 -95 65 -120 14 -25 41 -74 60 -110 20 -36 50 -92 68
-125 88 -160 79 -108 75 -449 -2 -198 0 -318 7 -347 32 -128 149 -225 283
-233 22 -1 62 -13 88 -25 26 -12 58 -25 70 -27 23 -5 151 -5 177 0 30 5 105
31 115 38 77 57 117 115 130 188 4 19 7 173 7 341 1 280 -1 309 -18 338 -10
17 -22 31 -26 31 -4 0 -8 6 -8 14 0 8 -3 16 -8 18 -6 3 -67 82 -112 148 -8 12
-23 31 -32 43 -23 29 -243 325 -265 357 -47 66 -65 75 -141 73 -66 -1 -73 1
-101 28 -17 16 -42 29 -56 30 -77 2 -96 2 -101 -4 -3 -3 -11 -4 -17 -2 -29 10
-77 12 -82 5 -3 -5 -11 -7 -18 -4 -20 7 -118 10 -123 3z"/>
<path d="M1439 6583 c-36 -25 -37 -29 -37 -137 0 -56 -1 -105 -2 -111 -1 -5
-1 -14 0 -20 2 -12 2 -128 -1 -141 -1 -5 0 -13 1 -19 2 -12 2 -128 -1 -141 -1
-5 0 -13 1 -19 2 -12 2 -128 -1 -141 -1 -5 0 -13 1 -19 2 -12 2 -128 -1 -141
-1 -5 0 -13 1 -19 2 -12 2 -128 -1 -141 -1 -5 -1 -11 0 -14 5 -16 5 -230 0
-230 -4 0 -3 -21 2 -46 13 -67 32 -78 129 -75 77 2 75 6 75 -135 0 -122 1
-127 25 -148 l25 -21 1719 0 1718 0 22 26 22 25 -1 666 c0 778 10 715 -107
704 -37 -3 -73 -7 -80 -8 -10 -2 -13 27 -14 127 -1 72 -5 138 -9 148 -13 31
-53 45 -102 36 -24 -5 -65 -11 -91 -15 -26 -3 -60 -8 -77 -11 -46 -7 -65 -10
-125 -17 -30 -4 -68 -9 -83 -12 -16 -2 -50 -6 -75 -9 -26 -2 -65 -6 -87 -9
-22 -3 -62 -8 -90 -10 -27 -3 -79 -8 -115 -11 -36 -4 -94 -9 -130 -11 -36 -3
-87 -6 -115 -8 -428 -33 -1095 -25 -1575 19 -25 2 -76 7 -115 10 -71 6 -130
13 -130 15 0 1 -20 3 -45 5 -25 2 -63 7 -85 10 -22 3 -60 8 -85 11 -25 3 -56
7 -70 10 -14 2 -47 7 -75 10 -27 3 -56 7 -64 10 -8 2 -37 7 -65 10 -28 3 -54
8 -57 10 -3 2 -17 -4 -30 -13z"/>
<path d="M7419 8593 c-1 -23 -1 -1712 0 -1739 1 -20 5 -20 204 -18 111 1 209
3 217 3 13 1 15 37 13 269 l-2 267 80 85 c44 47 87 95 96 108 8 12 20 22 27
22 6 0 56 -75 111 -166 55 -91 117 -194 137 -227 21 -34 41 -69 45 -77 3 -8 9
-17 13 -20 5 -5 119 -193 130 -215 3 -6 12 -20 20 -31 14 -20 24 -21 238 -20
122 1 223 5 224 9 1 10 -253 420 -264 425 -5 2 -8 8 -8 13 0 8 -178 299 -190
309 -3 3 -11 16 -18 30 -6 14 -45 78 -87 143 -41 64 -75 119 -75 121 0 3 6 11
13 18 7 7 46 53 87 103 41 49 82 96 90 105 8 9 38 43 65 75 45 53 105 124 154
180 9 11 37 44 61 74 25 30 54 64 65 76 38 40 75 85 75 90 0 3 -112 5 -250 5
-137 0 -250 -3 -250 -8 0 -4 -12 -21 -27 -38 -16 -16 -48 -54 -73 -83 -25 -29
-54 -63 -65 -75 -11 -12 -42 -49 -70 -81 -27 -33 -62 -72 -77 -87 -14 -15 -24
-28 -20 -28 3 0 -1 -6 -9 -12 -13 -11 -48 -51 -150 -171 -13 -16 -41 -47 -61
-69 l-37 -40 0 318 c0 176 0 331 0 347 l-1 27 -215 0 c-198 0 -215 -1 -216
-17z"/>
<path d="M9247 8603 c-2 -5 -3 -404 -3 -888 l1 -880 216 0 216 -1 -1 336 c-1
184 0 342 2 351 3 15 37 16 340 15 l337 -1 0 -350 0 -350 215 0 215 0 2 888 2
887 -214 0 -215 0 -1 -22 c0 -13 -1 -169 -1 -348 -1 -179 -4 -327 -8 -330 -6
-4 -610 -5 -656 -1 -12 1 -13 9 -14 108 -1 40 1 77 5 83 3 5 1 10 -5 10 -6 0
-9 4 -6 9 5 7 7 89 5 161 0 8 0 44 0 80 0 36 1 90 1 120 0 30 0 67 1 82 0 15
-2 32 -6 38 -7 12 -422 14 -428 3z"/>
<path d="M11658 8582 c-6 -15 -16 -40 -23 -57 -7 -16 -18 -48 -25 -70 -7 -22
-16 -44 -20 -50 -4 -5 -10 -22 -13 -36 -4 -14 -14 -43 -23 -65 -10 -21 -19
-43 -20 -49 -3 -13 -122 -335 -134 -360 -5 -11 -18 -47 -30 -80 -11 -33 -25
-69 -30 -80 -4 -11 -23 -60 -40 -110 -18 -49 -36 -99 -40 -110 -5 -11 -22 -56
-39 -100 -16 -44 -48 -129 -71 -190 -23 -60 -54 -146 -70 -190 -16 -44 -38
-104 -49 -133 -12 -29 -21 -57 -21 -62 0 -13 438 -10 448 4 5 6 14 27 21 46 7
19 17 44 21 55 37 91 63 162 63 173 0 6 4 12 9 12 4 0 8 6 8 14 0 8 8 31 18
53 l17 38 285 -1 c328 -2 300 -1 300 -16 0 -11 14 -48 60 -163 5 -11 26 -65
47 -120 l39 -100 228 -1 c204 -1 226 1 221 15 -8 20 -164 436 -262 696 -41
110 -86 232 -100 270 -13 39 -29 79 -33 90 -9 21 -42 107 -87 230 -14 39 -29
79 -34 90 -5 11 -18 47 -29 80 -12 33 -25 69 -30 80 -5 11 -25 66 -46 122
l-37 102 -234 0 -234 0 -11 -27z m262 -454 c7 -24 19 -58 27 -77 8 -18 16 -39
17 -45 2 -6 8 -22 14 -36 30 -69 149 -396 145 -400 -7 -7 -453 -7 -453 0 0 3
5 11 12 18 7 7 9 12 6 12 -4 0 8 38 27 85 18 47 31 85 28 85 -3 0 0 6 6 14 7
8 13 22 15 32 3 11 10 33 17 49 7 17 13 32 13 35 1 3 14 39 30 80 15 41 38
101 49 133 12 31 25 57 28 57 3 0 12 -19 19 -42z"/>
<path d="M8807 6314 c-1 -1 -27 -4 -57 -7 -30 -3 -55 -6 -55 -7 0 -2 -15 -5
-59 -14 -34 -6 -149 -51 -192 -74 -18 -9 -48 -25 -68 -36 -20 -10 -36 -22 -36
-27 0 -5 -5 -9 -11 -9 -19 0 -77 -72 -113 -140 -32 -62 -59 -139 -71 -205 -2
-16 -7 -41 -10 -55 -7 -29 -17 -201 -17 -280 0 -112 21 -223 58 -309 13 -29
24 -59 24 -66 0 -8 3 -15 8 -17 4 -1 23 -28 42 -58 43 -67 74 -99 131 -136 24
-16 46 -32 49 -35 7 -9 125 -58 180 -75 115 -35 348 -37 487 -4 51 12 95 26
99 31 3 5 11 9 18 9 8 0 35 12 60 28 26 15 56 32 67 38 21 12 85 71 110 101
55 67 129 230 143 314 3 18 8 45 11 59 6 27 6 241 1 300 -5 53 -17 140 -23
164 -3 12 -7 32 -10 46 -5 26 -7 33 -39 110 -20 47 -73 129 -102 158 -78 77
-308 175 -442 188 -65 7 -179 11 -183 8z m188 -342 c60 -20 131 -72 154 -112
27 -49 62 -143 68 -188 12 -82 8 -239 -7 -312 -30 -144 -88 -223 -197 -272
-39 -17 -65 -21 -138 -20 -49 1 -112 8 -139 16 -64 19 -143 74 -159 109 -6 15
-15 27 -19 27 -5 0 -8 7 -8 16 0 8 -5 25 -12 37 -7 12 -13 27 -14 32 -1 6 -7
31 -13 57 -6 26 -11 98 -11 160 -1 109 1 126 17 193 4 17 7 32 8 35 2 15 32
80 52 113 27 43 114 103 170 116 55 13 201 9 248 -7z"/>
<path d="M7446 5733 c0 -571 -1 -588 -59 -648 -44 -46 -109 -65 -205 -60 -91
4 -140 11 -194 31 -22 7 -43 12 -47 10 -4 -3 -7 -75 -6 -162 0 -131 2 -158 15
-160 8 -2 39 -10 69 -18 90 -25 294 -37 391 -22 113 17 255 91 306 159 81 108
106 194 103 363 -1 63 0 117 2 119 2 2 2 56 -1 120 -3 64 -3 118 0 120 3 2 3
56 0 120 -3 64 -3 118 0 120 3 2 3 56 0 120 -3 64 -3 118 0 120 3 2 4 44 2 94
l-3 91 -187 0 -187 0 1 -517z"/>
<path d="M9872 6230 c-9 -6 -10 -1506 0 -1515 5 -5 299 -10 363 -6 7 1 10 83
10 237 0 130 4 238 9 241 4 3 53 5 108 4 141 -3 156 -12 207 -122 23 -48 41
-94 41 -103 0 -8 4 -17 9 -21 5 -3 15 -22 22 -43 6 -20 16 -39 20 -42 5 -3 10
-15 12 -25 2 -11 11 -37 21 -57 9 -21 16 -42 16 -47 0 -5 5 -13 11 -17 14 -8
377 -10 385 -1 5 5 -55 159 -75 192 -3 6 -6 12 -7 15 -1 6 -11 31 -65 156 -44
104 -61 136 -93 171 -10 13 -18 24 -15 26 2 2 25 15 50 30 104 59 185 171 218
299 14 56 11 210 -5 272 -46 175 -138 280 -294 336 -64 23 -71 24 -503 25
-241 0 -441 -2 -445 -5z m758 -302 c81 -37 111 -87 116 -197 5 -118 -30 -182
-122 -223 -40 -17 -159 -24 -344 -19 l-35 1 0 223 c0 122 3 224 7 227 4 3 83
5 175 4 129 0 176 -4 203 -16z"/>
<path d="M11469 6206 c-4 -141 -3 -1480 2 -1487 5 -9 357 -14 367 -5 6 7 6
141 0 152 -3 5 -2 18 1 28 4 11 4 39 1 62 -4 24 -4 46 -1 49 2 3 4 27 2 53 -2
54 -2 47 -2 132 1 36 1 72 0 80 0 8 1 35 2 60 0 25 0 50 -1 55 -1 6 -1 15 0
20 1 6 2 54 2 108 0 53 2 97 4 97 2 0 21 -26 41 -57 21 -32 41 -60 44 -63 3
-3 17 -21 30 -41 69 -104 133 -194 141 -197 4 -2 8 -10 8 -17 0 -7 3 -15 8
-17 4 -1 31 -39 61 -83 30 -44 57 -82 60 -85 6 -5 47 -65 155 -225 23 -33 47
-66 53 -73 7 -7 16 -19 20 -27 8 -14 60 -17 246 -16 l87 1 0 763 0 763 -187
-1 -188 0 -1 -445 c-1 -245 -2 -449 -3 -454 0 -5 -21 19 -45 55 -25 35 -48 69
-53 74 -4 6 -28 39 -52 75 -24 36 -69 101 -100 145 -30 44 -108 157 -174 250
-65 94 -124 178 -132 188 -8 9 -15 22 -15 27 0 6 -4 10 -9 10 -5 0 -12 8 -16
19 -3 10 -13 27 -23 38 -15 17 -32 19 -174 19 l-158 0 -1 -30z"/>
</g>
</svg>
